<svg id="レイヤー_1" data-name="レイヤー 1" xmlns="http://www.w3.org/2000/svg" width="18.36" height="19.33" viewBox="0 0 18.36 19.33"><title>usb</title><path id="path1334" d="M10,.3,7.39,2.44H9.28v11L4.46,11.28a1,1,0,0,1-.55-.66V8.82c.9-.14,1.54-.54,1.54-1s-1-1.07-2.29-1.07S.86,7.22.86,7.81s.64.87,1.54,1V10.6c0,.48.56,1,1.22,1.3h0l5.12,2.27a.93.93,0,0,1,.54.67v1.24c-1.75.16-3.07.89-3.07,1.75s1.71,1.8,3.83,1.8,3.83-.8,3.83-1.8-1.32-1.59-3.07-1.75V14.86h0v-2.7a.92.92,0,0,1,.54-.66l5.12-2.27h0c.66-.32,1.22-.83,1.22-1.31V6.2h1.54V4.06H14.63V6.2h1.54V7.93a1,1,0,0,1-.55.67L10.8,10.74V2.44h1.89Z" transform="translate(-0.86 -0.3)" style="fill:#fff"/></svg>